<?xml version="1.0" encoding="utf-8" ?><svg xmlns="http://www.w3.org/2000/svg" xmlns:xlink="http://www.w3.org/1999/xlink" width="1254" height="1254" viewBox="0 0 1254 1254"><path fill="white" d="M0 0L1254 0L1254 1254L0 1254L0 0Z"/><path d="M422.535 585.024C429.42 588.222 443.246 597.046 450.219 601.245L498.829 630.334C498.402 645.815 498.825 663.447 498.812 679.094C510.232 686.68 528.479 696.61 540.889 703.93L628.51 755.288L757.998 679.156L757.975 630.182C777.008 619.079 795.928 607.784 814.733 596.298C857.934 622.344 879.363 656.945 882.483 707.365C886.13 749.977 870.242 795.958 839.956 826.256C821.631 844.269 798.549 856.683 773.417 862.041C754.718 866.006 734.147 865.092 714.94 865.085L651.482 865.054L422.407 865.099L422.535 585.024Z"/><path d="M422.499 323.927L611.232 323.93L668.107 323.923C707.368 323.924 731.81 322.443 768.79 340.08C837.247 372.731 855.69 454.78 818.006 517.955C803.189 542.794 782.491 560.731 757.932 575.297L757.996 505.914L754.031 503.417L628.43 428.857L498.803 505.906C498.98 532.032 498.94 558.158 498.684 584.283C473.842 570.89 447.297 554.021 422.426 539.789C423.177 468.257 422.366 395.578 422.499 323.927Z"/><path d="M628.065 512.414C630.488 513.103 645.99 522.624 648.983 524.404C665.254 534.127 681.588 543.746 697.983 553.258L698.01 637.502C674.895 650.961 651.909 664.638 629.053 678.532C625.656 677.967 567.588 642.507 559.068 637.591L559.045 553.266C581.042 539.51 605.542 526.014 628.065 512.414Z"/></svg>