<?xml version="1.0" encoding="utf-8" ?><svg xmlns="http://www.w3.org/2000/svg" xmlns:xlink="http://www.w3.org/1999/xlink" width="1254" height="1254" viewBox="0 0 1254 1254"><path d="M0 0L1254 0L1254 1254L0 1254L0 0Z"/><path fill="#FEFEFE" d="M386.995 265.277L637.318 265.257L708.254 265.217C728.776 265.155 750.028 264.138 770.149 267.747C795.136 272.274 818.536 283.161 838.092 299.359C867.872 323.69 886.495 359.071 889.694 397.393C893.911 442.915 878.228 481.776 849.485 516.235L765.759 467.87C759.859 464.161 753.494 460.568 747.429 457.071C708.918 434.866 670.906 411.437 632.199 389.603C581.028 420.551 525.344 454.059 473.404 483.445L473.256 563.77L386.926 513.907L386.995 265.277Z"/><path fill="#FEFEFE" d="M386.971 725.024C391.364 726.848 405.329 735.232 410.006 737.909L458.958 766.053L632.562 865.913L809.076 763.808C856.689 789.907 908.304 808.611 906.486 873.299C905.663 899.333 894.98 924.082 876.601 942.538C840.218 978.654 798.829 976.679 751.949 976.653L674.556 976.638L386.988 976.656L386.971 725.024Z"/><path fill="#FEFEFE" d="M788.423 526.68C808.061 537.269 827.318 549.354 846.837 560.243C856.133 565.43 866.613 571.435 875.131 577.74C882.465 583.214 889.129 589.532 894.987 596.563C931.16 640.15 923.294 705.34 883.459 743.808C879.179 747.941 875.079 751.471 870.507 755.251C849.252 743.957 825.435 729.555 804.324 717.475C788.727 727.389 771.944 736.676 756.055 746.235C715.324 770.74 673.306 793.925 632.585 818.338C625.866 814.961 616.748 809.316 610.049 805.461L566.932 780.662L430.707 701.456C416.263 693.511 401.266 684.546 386.934 676.275L387.006 559.618C415.828 575.356 444.864 593.352 473.836 609.396C473.718 640.879 474.525 675.261 473.552 706.484C491.779 716.707 510.825 728.345 528.955 738.964C563.193 759.045 597.536 778.947 631.983 798.668C650.97 786.687 672.66 774.5 692.166 763.095L788.403 706.58C787.39 665.664 788.719 624.234 788.216 583.278C787.986 564.576 788.045 545.371 788.423 526.68Z"/><path fill="#FEFEFE" d="M631.947 500.826C658.552 517.068 687.397 533.664 714.391 549.408L714.318 647.672L632.257 696.417C624.455 692.475 611.746 684.446 603.879 679.824L548.673 647.352L548.66 549.409C576.556 533.445 604.319 517.25 631.947 500.826Z"/></svg>