<svg width="1254" xmlns="http://www.w3.org/2000/svg" height="1254" id="screenshot-0dadde6a-25ea-8090-8008-2aed9f018877" viewBox="0 0 1254 1254" xmlns:xlink="http://www.w3.org/1999/xlink" fill="none" version="1.1"><g id="shape-0dadde6a-25ea-8090-8008-2aed9f018877" width="1254" height="1254" rx="0" ry="0" style="fill:  rgb(255, 255, 255);"><g id="shape-0dadde6a-25ea-8090-8008-2aed9f0356f0" style="display: none;"><g class="fills" id="fills-0dadde6a-25ea-8090-8008-2aed9f0356f0"><rect width="1254" height="1254" x="0" transform="matrix(1.000000, 0.000000, 0.000000, 1.000000, 0.000000, 0.000000)" style="fill: none;" ry="0" fill="none" rx="0" y="0"/></g></g><g id="shape-0dadde6a-25ea-8090-8008-2aed9f04027b"><g class="fills" id="fills-0dadde6a-25ea-8090-8008-2aed9f04027b"><path d="M0,0L1254,0L1254,1254L0,1254L0,0Z" style="fill: rgb(255, 255, 255); fill-opacity: 0;"/></g></g><g id="shape-0dadde6a-25ea-8090-8008-2aed9f049ff8"><g class="fills" id="fills-0dadde6a-25ea-8090-8008-2aed9f049ff8"><path d="M422.5350036621094,585.0239868164062C429.4200134277344,588.2219848632812,443.2460021972656,597.0460205078125,450.218994140625,601.2449951171875L498.8290100097656,630.333984375C498.4020080566406,645.8150024414062,498.82501220703125,663.447021484375,498.81201171875,679.093994140625C510.23199462890625,686.6799926757812,528.47900390625,696.6099853515625,540.8889770507812,703.9299926757812L628.510009765625,755.2880249023438L757.9979858398438,679.156005859375L757.9749755859375,630.1820068359375C777.0079956054688,619.0789794921875,795.927978515625,607.7839965820312,814.7329711914062,596.2979736328125C857.9340209960938,622.343994140625,879.3629760742188,656.9450073242188,882.4829711914062,707.364990234375C886.1300048828125,749.9769897460938,870.2420043945312,795.9580078125,839.9559936523438,826.2559814453125C821.6309814453125,844.2689819335938,798.5490112304688,856.6829833984375,773.4169921875,862.041015625C754.718017578125,866.0059814453125,734.14697265625,865.0919799804688,714.9400024414062,865.0850219726562L651.4819946289062,865.0540161132812L422.4070129394531,865.0989990234375L422.5350036621094,585.0239868164062Z"/></g></g><g id="shape-0dadde6a-25ea-8090-8008-2aed9f04cad9"><g class="fills" id="fills-0dadde6a-25ea-8090-8008-2aed9f04cad9"><path d="M422.4989929199219,323.927001953125L611.2319946289062,323.92999267578125L668.1069946289062,323.9230041503906C707.3679809570312,323.92401123046875,731.8099975585938,322.4429931640625,768.7899780273438,340.0799865722656C837.2470092773438,372.7309875488281,855.6900024414062,454.780029296875,818.0059814453125,517.9550170898438C803.1890258789062,542.7940063476562,782.4910278320312,560.7310180664062,757.9320068359375,575.2969970703125L757.9959716796875,505.91400146484375L754.031005859375,503.4169921875L628.4299926757812,428.85699462890625L498.8030090332031,505.906005859375C498.9800109863281,532.031982421875,498.94000244140625,558.1580200195312,498.6839904785156,584.2830200195312C473.8420104980469,570.8900146484375,447.2969970703125,554.02099609375,422.4259948730469,539.7890014648438C423.177001953125,468.2569580078125,422.3659973144531,395.5780029296875,422.4989929199219,323.927001953125Z"/></g></g><g id="shape-0dadde6a-25ea-8090-8008-2aed9f04cada"><g class="fills" id="fills-0dadde6a-25ea-8090-8008-2aed9f04cada"><path d="M628.0650024414062,512.4140014648438C630.4879760742188,513.10302734375,645.989990234375,522.6240234375,648.9829711914062,524.4039916992188C665.2540283203125,534.1270141601562,681.5880126953125,543.7459716796875,697.9829711914062,553.2579956054688L698.010009765625,637.5020141601562C674.89501953125,650.9609985351562,651.9089965820312,664.6380004882812,629.052978515625,678.531982421875C625.656005859375,677.9669799804688,567.5880126953125,642.5070190429688,559.0679931640625,637.5910034179688L559.0449829101562,553.2659912109375C581.0419921875,539.510009765625,605.5419921875,526.0139770507812,628.0650024414062,512.4140014648438Z"/></g></g></g></svg>
